<svg width="35" height="24" viewBox="0 0 35 24" fill="none" xmlns="http://www.w3.org/2000/svg">
<path d="M11.6667 24L23.3333 24C29.766 24 35 18.6165 35 12C35 5.3835 29.766 0 23.3333 0L11.6667 0C5.23396 0 0 5.3835 0 12C0 18.6165 5.23396 24 11.6667 24ZM11.6667 3L23.3333 3C28.159 3 32.0833 7.0365 32.0833 12C32.0833 16.9635 28.159 21 23.3333 21L11.6667 21C6.84104 21 2.91666 16.9635 2.91666 12C2.91666 7.0365 6.84104 3 11.6667 3ZM5.83333 12C5.83333 8.691 8.44958 6 11.6667 6C14.8837 6 17.5 8.691 17.5 12C17.5 15.309 14.8837 18 11.6667 18C8.44958 18 5.83333 15.309 5.83333 12Z" fill="currentColor"/>
</svg>
