<svg width="64" height="48" viewBox="0 0 64 48" fill="none" xmlns="http://www.w3.org/2000/svg">
<g clip-path="url(#clip0_125_264)">
<path d="M64 42.2515C63.9198 42.5254 63.8313 42.7976 63.7579 43.0731C63.0114 45.8819 60.4565 47.9091 57.5476 47.996C57.3388 48.0026 57.1318 48.0026 56.923 48.0026C40.2826 48.0026 23.6439 48.0026 7.0035 48.0026C3.60028 48.0026 0.961858 46.0272 0.198721 42.8828C0.0634599 42.3233 0.00835375 41.7305 0.00668387 41.1528C4.32692e-06 29.7174 -0.00333544 18.2837 0.00501398 6.85167C0.00668387 2.92076 2.90226 0.00847778 6.81981 0.00513801C23.6055 -0.00154153 40.3895 0.000128357 57.1752 0.00513801C60.6051 0.00513801 63.2051 2.16764 63.8931 5.53914C63.9082 5.61428 63.9633 5.68108 64 5.75121V42.2515ZM31.9549 45.3458C40.3077 45.3458 48.6621 45.3492 57.0149 45.3442C59.6399 45.3442 61.3399 43.6659 61.3399 41.0609C61.3466 29.6873 61.3466 18.3138 61.3399 6.94017C61.3399 4.36187 59.6449 2.66359 57.0717 2.66359C40.3645 2.65858 23.6589 2.65858 6.95173 2.66359C4.3417 2.66359 2.65846 4.35853 2.65679 6.97691C2.65178 18.3305 2.65345 29.6823 2.6618 41.0359C2.6618 41.5085 2.71524 41.9994 2.84215 42.4519C3.35814 44.2838 4.90613 45.3458 7.01686 45.3458C15.3279 45.3492 23.6406 45.3458 31.9516 45.3458H31.9549Z" fill="currentColor"/>
<path d="M19.9969 29.3449C18.3103 29.3449 16.6237 29.3399 14.9371 29.3449C12.3137 29.3549 10.6689 31.0148 10.6589 33.6532C10.6555 34.403 10.6689 35.1527 10.6539 35.9025C10.6355 36.7525 10.0811 37.3386 9.3263 37.3336C8.56817 37.3286 8.00876 36.7391 8.00709 35.8892C8.00542 34.7653 7.92026 33.6265 8.07389 32.521C8.55147 29.0593 11.1949 26.7232 14.695 26.6697C18.2335 26.6163 21.7753 26.6096 25.3154 26.6697C29.1996 26.7365 31.9833 29.6371 32.0017 33.5213C32.005 34.3128 32.0134 35.1043 31.9983 35.8958C31.9833 36.7425 31.4272 37.3319 30.6691 37.3319C29.9143 37.3319 29.3666 36.7475 29.3499 35.8942C29.3349 35.1243 29.3499 34.3529 29.3449 33.583C29.3248 31.0231 27.67 29.3582 25.1217 29.3449C23.4134 29.3349 21.7068 29.3432 19.9985 29.3432L19.9969 29.3449Z" fill="currentColor"/>
<path d="M13.3507 17.3518C13.3424 13.6713 16.3331 10.6639 20.0019 10.6639C23.6723 10.6639 26.663 13.6697 26.653 17.3518C26.643 21.0138 23.684 23.9862 20.0336 24.0012C16.3548 24.0163 13.3591 21.0355 13.3507 17.3534V17.3518ZM20.0169 13.3507C17.7943 13.344 16.0025 15.1208 16.0025 17.3351C16.0025 19.5326 17.8277 21.3545 20.0152 21.3411C22.1911 21.3278 23.9846 19.5393 23.9979 17.3668C24.0129 15.1509 22.2345 13.3574 20.0152 13.3507H20.0169Z" fill="currentColor"/>
<path d="M46.6733 37.3453C44.1551 37.3453 41.6369 37.3486 39.1187 37.342C38.8298 37.342 38.5309 37.3253 38.2554 37.2484C37.6843 37.0898 37.3403 36.5771 37.3553 35.9743C37.3704 35.3631 37.6776 34.9407 38.2487 34.7586C38.5393 34.6668 38.8632 34.6618 39.1722 34.6618C44.1668 34.6568 49.1631 34.6568 54.1577 34.6585C55.3684 34.6585 56.0146 35.1427 55.9963 36.0294C55.9762 36.8944 55.3517 37.3453 54.1661 37.3453C51.6679 37.3453 49.1714 37.3453 46.6733 37.3453Z" fill="currentColor"/>
<path d="M46.6833 13.3457C49.1597 13.3457 51.6362 13.3457 54.1126 13.3457C54.3213 13.3457 54.5301 13.3407 54.7371 13.3557C55.4619 13.4125 55.9895 13.9586 55.9962 14.6532C56.0029 15.3412 55.4802 15.929 54.7672 15.9875C54.3531 16.0209 53.9356 16.0008 53.5198 16.0008C48.7339 16.0008 43.948 16.0008 39.1605 16.0008C38.9734 16.0008 38.7847 16.0092 38.5994 15.9925C37.8479 15.9274 37.3336 15.3563 37.3553 14.6198C37.3753 13.9068 37.878 13.3825 38.6328 13.3574C39.4644 13.329 40.2976 13.3457 41.1292 13.344C42.9811 13.344 44.8331 13.344 46.685 13.344L46.6833 13.3457Z" fill="currentColor"/>
<path d="M46.6232 26.658C44.0215 26.658 41.4215 26.663 38.8198 26.6547C37.9465 26.6514 37.4088 26.1905 37.357 25.4457C37.3052 24.7059 37.7978 24.1014 38.5343 24.0146C38.7196 23.9929 38.9083 24.0029 39.0953 24.0029C44.1518 24.0029 49.2082 24.0029 54.2662 24.0029C54.4115 24.0029 54.5585 23.9962 54.7038 24.0079C55.4535 24.063 56.0046 24.6358 55.9962 25.3472C55.9896 26.0636 55.4452 26.6363 54.677 26.6463C52.9287 26.6697 51.182 26.6564 49.4336 26.658C48.4968 26.658 47.56 26.658 46.6249 26.658H46.6232Z" fill="currentColor"/>
</g>
<defs>
<clipPath id="clip0_125_264">
<rect width="64" height="48.0008" fill="white"/>
</clipPath>
</defs>
</svg>
